<svg id="Layer_1" data-name="Layer 1" xmlns="http://www.w3.org/2000/svg" viewBox="0 0 724.68 237.88"><defs><style>.cls-1{fill:#150958;}.cls-2{fill:#f26101;}</style></defs><title>AIG-logo</title><path class="cls-1" d="M285.13,89.64H299v58.47H285.13Zm37.44-25.39h-24.3L294.9,74.43H280.7L302.21,16h16.5l22,58.46H326Zm-3.94-11.58-3.37-10C313.7,38.3,312,33,310.34,27.87,308.7,33,307,38.3,305.49,42.65l-3.36,10Zm22.91.58c0-13.47,8.46-22.17,21.76-22.17C375,31.08,382.84,37.56,384,48H371.27c-.74-4.51-3.86-6.49-8-6.49-5.42,0-8.78,3.62-8.78,11.75S358,64.91,363.3,64.91c4.27,0,7.64-2.14,8.21-7.15h12.73c-.9,10.92-9.2,17.66-20.94,17.66C350.08,75.42,341.54,66.71,341.54,53.25Zm46.15,0c0-13.47,8.46-22.17,21.76-22.17,11.66,0,19.54,6.48,20.69,16.91H417.41c-.73-4.51-3.85-6.49-8-6.49-5.42,0-8.79,3.62-8.79,11.75s3.45,11.66,8.79,11.66c4.27,0,7.64-2.14,8.21-7.15h12.73c-.9,10.92-9.2,17.66-20.94,17.66C396.23,75.42,387.69,66.71,387.69,53.25Zm88-21.19V74.43H463.23v-6a15.68,15.68,0,0,1-13.3,7c-8.37,0-14.7-5.09-14.7-15.6V32.06H448V57.27c0,4.68,2.06,7.23,6.82,7.23,3.94,0,8.05-2.55,8.05-8.79V32.06Zm34.73-.49V43.23h-3.29c-7.14,0-11.24,3.53-11.24,11.49V74.43H483.11V32.06h12.48v7.88c1.8-5.25,5.74-8.54,12.07-8.54C508.64,31.4,509.55,31.49,510.45,31.57Zm45,.49V74.43H543v-5.5c-2.47,4-6.41,6.49-12.16,6.49-11.82,0-18.47-8.71-18.47-22.17S519,31.08,530.81,31.08c5.42,0,9.2,2.21,11.75,5.91V32.06ZM542.8,53.25c0-8-3-11.91-8.78-11.91s-8.71,4.19-8.71,12.23,3,11.58,8.71,11.58S542.8,61.29,542.8,53.25Zm36.38-11.83V61.21c0,3.12,1.56,3.7,4.84,3.7h3.29v9.52a47.79,47.79,0,0,1-5.91.33c-10.6,0-15-3.45-15-12.15V41.42h-6.32V32.06h6.32V19.5h12.81V32.06h8.13v9.36ZM633.87,57H602.5c.9,6.08,4.68,8.95,9.69,8.95,4.27,0,7.06-1.72,8.54-4.76h12.15c-2.3,8.95-10.51,14.21-20.69,14.21-13.14,0-22-8.71-22-22.17S598.8,31.08,612,31.08s21.85,9.11,21.85,23.4Zm-31.29-8.13H621.3c-.9-5.25-4.27-8.37-9.44-8.37C607.18,40.52,603.57,43,602.58,48.89Zm-255,71.46v27.76H334.81V122.9c0-4.68-2.06-7.23-6.82-7.23-3.94,0-8,2.55-8,8.79v23.65H307.14V105.74h12.48v6a15.78,15.78,0,0,1,13.3-7C341.29,104.75,347.62,109.84,347.62,120.35Zm23.32-16.67v2.06h8.37v9.36h-8.37v33H358.13v-33h-6.32v-9.36h6.32v-2.47c0-7.47,3.94-14,15.27-14,2,0,4.27.16,6.08.32v9.53H376C372.42,99.17,370.94,100.81,370.94,103.68Zm10.18,23.24c0-13.46,8.7-22.17,22.25-22.17s22.17,8.71,22.17,22.17-8.7,22.17-22.17,22.17S381.12,140.39,381.12,126.92Zm31.45,0c0-8-3.53-11.9-9.2-11.9s-9.28,3.86-9.28,11.9,3.54,11.91,9.28,11.91S412.57,135,412.57,126.92Zm46-21.67V116.9h-3.28c-7.15,0-11.25,3.54-11.25,11.5v19.71H431.21V105.74h12.48v7.88c1.81-5.25,5.75-8.54,12.07-8.54A27.33,27.33,0,0,1,458.55,105.25ZM529.5,120.6v27.51H516.69V122.82c0-4.6-1.81-7.15-6.32-7.15-3.86,0-7.31,2.55-7.31,9v23.4H490.25V122.82c0-4.6-1.81-7.15-6.32-7.15-3.86,0-7.39,2.55-7.39,9v23.4H463.73V105.74h12.48v6c2.71-4,6.48-7,12.07-7,6.16,0,10.84,2.71,13.14,7.64,2.87-4.27,7.39-7.64,13.22-7.64C523.75,104.75,529.5,110.42,529.5,120.6Zm48.77-14.86v42.37H565.79v-5.5c-2.46,4-6.4,6.48-12.15,6.48-11.82,0-18.47-8.7-18.47-22.17s6.65-22.17,18.47-22.17c5.42,0,9.2,2.22,11.74,5.91v-4.92Zm-12.64,21.18c0-8-3-11.9-8.79-11.9s-8.7,4.18-8.7,12.23,3,11.58,8.7,11.58S565.63,135,565.63,126.92ZM602,115.1v19.79c0,3.12,1.56,3.69,4.84,3.69h3.28v9.53a49.7,49.7,0,0,1-5.91.33c-10.59,0-15-3.45-15-12.16V115.1h-6.33v-9.36h6.33V93.17H602v12.57h8.12v9.36Zm13.54-9.36h12.81v42.37H615.55Zm.33-15.69h12.24v10.84H615.88Zm18.23,36.87c0-13.46,8.71-22.17,22.25-22.17s22.17,8.71,22.17,22.17-8.7,22.17-22.17,22.17S634.11,140.39,634.11,126.92Zm31.45,0c0-8-3.53-11.9-9.2-11.9s-9.27,3.86-9.27,11.9,3.53,11.91,9.27,11.91S665.56,135,665.56,126.92Zm59.12-6.57v27.76H711.87V122.9c0-4.68-2-7.23-6.81-7.23-3.94,0-8,2.55-8,8.79v23.65H684.2V105.74h12.48v6a15.8,15.8,0,0,1,13.3-7C718.36,104.75,724.68,109.84,724.68,120.35Z"/><path class="cls-1" d="M337.52,191.73v30.05h-5.67l-1.48-7.88c-4.18,5.83-10.67,9.2-19.13,9.2-16.75,0-27.67-12.4-27.67-30.55S294.41,162,311.32,162c14.13,0,23.57,8.29,25.54,20.44h-7.14c-1.56-8.78-9.2-14.12-18.4-14.12-12.48,0-20.52,9.36-20.52,24.22s8.12,24.22,20.52,24.22c10.84,0,20-7.63,20-18.8H312.64v-6.24Zm31.94-12.89v6.32h-1.64c-8.46,0-13.88,4.27-13.88,12.48v24.14h-6.57V179.41h6.24v7.48a14.78,14.78,0,0,1,13.63-8.13C367.9,178.76,368.56,178.76,369.46,178.84Zm1.64,21.76c0-13.55,8.62-22.17,20.53-22.17s20.53,8.62,20.53,22.17-8.62,22.17-20.53,22.17S371.1,214.15,371.1,200.6Zm34.16,0c0-10.27-5.42-16.26-13.63-16.26S378,190.33,378,200.6s5.42,16.26,13.63,16.26S405.26,210.86,405.26,200.6Zm47.95-21.19v42.37H447v-6.32a15.61,15.61,0,0,1-13.3,7.31c-9.44,0-14.94-5.34-14.94-14.7V179.41h6.57v28c0,6.57,3.61,9.45,9.69,9.45,5.5,0,11.66-4.11,11.66-13.47v-24Zm50.34,21.19c0,13.55-7.8,22.17-19.71,22.17a16.64,16.64,0,0,1-14.2-7.06v22.17h-6.57V179.41h6.24V186a16.66,16.66,0,0,1,14.53-7.55C495.75,178.43,503.55,187.05,503.55,200.6Zm-6.9-.33c0-10.26-5.42-15.93-13.63-15.93s-13.63,6-13.63,16.26,5.42,16.26,13.63,16.26S496.65,210.53,496.65,200.27Z"/><polygon class="cls-2" points="178.08 77.28 170.92 64.99 170.92 64.99 169.13 61.89 106.22 170.42 147.1 170.42 169.15 132.62 205.57 195.7 61.33 195.7 153.89 35.47 133.49 0 0 231.11 266.9 231.11 178.08 77.28"/><path class="cls-1" d="M510.37,180.77h-4.43V177.9h12.22v2.87h-4.44v11.37h-3.35Zm10.84-2.87h5.85l2.8,11.93h.37l2.64-11.93h6v14.24h-3.16V180.21h-.41l-2.65,11.93h-5.22l-2.72-11.93h-.41v11.93h-3.09Z"/></svg>